<svg width="20" height="21" viewBox="0 0 20 21" fill="none" xmlns="http://www.w3.org/2000/svg">
<path d="M1.66675 2.5624L5.00008 2.16223C5.00008 2.16223 4.0477 4.56326 4.0477 7.76463C4.0477 10.966 5.00008 12.9669 5.00008 12.9669H1.66675V2.5624Z" fill="#D7DDEC"/>
<path d="M19.1328 0.835285L19.1327 0.835265C18.425 0.714891 17.7084 0.652923 16.9904 0.650004C14.5405 0.648066 12.1418 1.34185 10.0803 2.64848L10.0006 2.69898L9.9206 2.64905C7.85372 1.35953 5.45535 0.682769 3.01029 0.699313L3.00988 0.699315C2.29172 0.702221 1.57506 0.764188 0.867326 0.884573L19.1328 0.835285ZM19.1328 0.835285C19.324 0.867658 19.498 0.963561 19.6259 1.10665C19.7531 1.24887 19.8273 1.42923 19.8367 1.61806L19.8367 13.4493L19.8368 13.4515C19.8386 13.5741 19.813 13.6956 19.7618 13.8074C19.7106 13.9193 19.635 14.0188 19.5403 14.0987C19.4455 14.1787 19.334 14.2372 19.2135 14.2699C19.093 14.3026 18.9667 14.3087 18.8435 14.2877L18.8419 14.2874C17.3839 14.0549 15.8935 14.1138 14.4589 14.4607C13.0271 14.8069 11.68 15.433 10.4971 16.3019L10.4193 16.3468H10.3495H10.3199L10.2925 16.358C10.1998 16.3962 10.1004 16.4158 10 16.4158C9.89956 16.4158 9.80015 16.3962 9.70754 16.358L9.68012 16.3468H9.65046H9.58072L9.50199 16.3014C8.31063 15.4512 6.95934 14.8446 5.52748 14.5172C4.09324 14.1893 2.60707 14.1481 1.15649 14.3961C1.03333 14.4171 0.906996 14.4111 0.786513 14.3784C0.666033 14.3457 0.554467 14.2872 0.459711 14.2072L0.36296 14.3219L0.459711 14.2072C0.364962 14.1273 0.289367 14.0278 0.238176 13.9159C0.186989 13.8041 0.161425 13.6826 0.163234 13.56H0.163251V13.5578V1.72294H0.163267M19.1328 0.835285L0.163267 1.72294M0.163267 1.72294L0.163234 1.72073M0.163267 1.72294L0.163234 1.72073M0.163234 1.72073C0.160309 1.52204 0.229295 1.32859 0.358188 1.17523C0.487114 1.02183 0.667584 0.918585 0.867305 0.884577L0.163234 1.72073ZM19.1346 16.6154L19.1327 16.6151C18.425 16.4947 17.7084 16.4327 16.9903 16.4298C14.5404 16.4279 12.1418 17.1217 10.0803 18.4283L10 18.4792L9.9197 18.4283C7.85821 17.1217 5.45958 16.4279 3.00971 16.4298C2.2916 16.4327 1.57499 16.4947 0.867305 16.6151L0.865377 16.6154C0.754664 16.6327 0.648601 16.6715 0.553281 16.7294C0.457967 16.7873 0.37531 16.8632 0.309989 16.9526C0.244671 17.0419 0.19796 17.1431 0.172454 17.2501C0.147126 17.3565 0.143185 17.4666 0.160837 17.5744C0.204205 17.7902 0.332197 17.9808 0.517699 18.1045C0.70391 18.2287 0.932665 18.275 1.15375 18.2331L1.15642 18.2326L1.15642 18.2326C2.60702 17.9846 4.09321 18.0257 5.52748 18.3537C6.96152 18.6815 8.31473 19.2895 9.50742 20.1418C9.65111 20.2427 9.82327 20.297 10 20.297C10.1767 20.297 10.3488 20.2427 10.4925 20.1418C10.4926 20.1417 10.4928 20.1416 10.493 20.1415L10.5792 20.2642C11.7558 19.4233 13.091 18.8234 14.506 18.4999L19.1346 16.6154ZM19.1346 16.6154C19.2453 16.6327 19.3514 16.6715 19.4467 16.7294C19.542 16.7873 19.6247 16.8632 19.69 16.9526C19.7553 17.0419 19.802 17.1431 19.8275 17.2501C19.8529 17.3565 19.8568 17.4667 19.8392 17.5745L19.1346 16.6154ZM8.93217 13.9276L9.15132 14.0414V13.7945V4.2477V4.16648L9.08331 4.12209C7.28256 2.94675 5.17156 2.32096 3.01345 2.32247C2.6766 2.30347 2.33892 2.30355 2.00208 2.32272L1.8606 2.33077V2.47248V12.3348V12.4848H2.0106H2.01259H2.01458H2.01657H2.01856H2.02055H2.02253H2.02452H2.02651H2.0285H2.03048H2.03247H2.03446H2.03645H2.03843H2.04042H2.0424H2.04439H2.04638H2.04836H2.05035H2.05233H2.05432H2.0563H2.05828H2.06027H2.06225H2.06424H2.06622H2.0682H2.07019H2.07217H2.07415H2.07613H2.07812H2.0801H2.08208H2.08406H2.08604H2.08802H2.09H2.09198H2.09397H2.09595H2.09793H2.09991H2.10189H2.10386H2.10584H2.10782H2.1098H2.11178H2.11376H2.11574H2.11771H2.11969H2.12167H2.12365H2.12562H2.1276H2.12958H2.13155H2.13353H2.13551H2.13748H2.13946H2.14143H2.14341H2.14538H2.14736H2.14933H2.15131H2.15328H2.15526H2.15723H2.15921H2.16118H2.16315H2.16513H2.1671H2.16907H2.17104H2.17302H2.17499H2.17696H2.17893H2.1809H2.18288H2.18485H2.18682H2.18879H2.19076H2.19273H2.1947H2.19667H2.19864H2.20061H2.20258H2.20455H2.20652H2.20849H2.21046H2.21242H2.21439H2.21636H2.21833H2.2203H2.22226H2.22423H2.2262H2.22817H2.23013H2.2321H2.23407H2.23603H2.238H2.23997H2.24193H2.2439H2.24586H2.24783H2.24979H2.25176H2.25372H2.25569H2.25765H2.25962H2.26158H2.26355H2.26551H2.26747H2.26944H2.2714H2.27336H2.27533H2.27729H2.27925H2.28121H2.28318H2.28514H2.2871H2.28906H2.29102H2.29299H2.29495H2.29691H2.29887H2.30083H2.30279H2.30475H2.30671H2.30867H2.31063H2.31259H2.31455H2.31651H2.31847H2.32043H2.32239H2.32435H2.32631H2.32827H2.33022H2.33218H2.33414H2.3361H2.33806H2.34001H2.34197H2.34393H2.34589H2.34784H2.3498H2.35176H2.35371H2.35567H2.35763H2.35958H2.36154H2.36349H2.36545H2.36741H2.36936H2.37132H2.37327H2.37523H2.37718H2.37914H2.38109H2.38304H2.385H2.38695H2.38891H2.39086H2.39281H2.39477H2.39672H2.39867H2.40063H2.40258H2.40453H2.40649H2.40844H2.41039H2.41234H2.4143H2.41625H2.4182H2.42015H2.4221H2.42405H2.42601H2.42796H2.42991H2.43186H2.43381H2.43576H2.43771H2.43966H2.44161H2.44356H2.44551H2.44746H2.44941H2.45136H2.45331H2.45526H2.45721H2.45916H2.46111H2.46306H2.465H2.46695H2.4689H2.47085H2.4728H2.47475H2.47669H2.47864H2.48059H2.48254H2.48448H2.48643H2.48838H2.49033H2.49227H2.49422H2.49617H2.49811H2.50006H2.50201H2.50395H2.5059H2.50785H2.50979H2.51174H2.51368H2.51563H2.51757H2.51952H2.52146H2.52341H2.52535H2.5273H2.52924H2.53119H2.53313H2.53508H2.53702H2.53897H2.54091H2.54286H2.5448H2.54674H2.54869H2.55063H2.55257H2.55452H2.55646H2.5584H2.56035H2.56229H2.56423H2.56618H2.56812H2.57006H2.572H2.57395H2.57589H2.57783H2.57977H2.58171H2.58366H2.5856H2.58754H2.58948H2.59142H2.59336H2.59531H2.59725H2.59919H2.60113H2.60307H2.60501H2.60695H2.60889H2.61083H2.61277H2.61471H2.61665H2.61859H2.62053H2.62247H2.62441H2.62635H2.62829H2.63023H2.63217H2.63411H2.63605H2.63799H2.63993H2.64187H2.64381H2.64575H2.64769H2.64962H2.65156H2.6535H2.65544H2.65738H2.65932H2.66126H2.66319H2.66513H2.66707H2.66901H2.67095H2.67288H2.67482H2.67676H2.6787H2.68063H2.68257H2.68451H2.68645H2.68838H2.69032H2.69226H2.6942H2.69613H2.69807H2.70001H2.70194H2.70388H2.70582H2.70775H2.70969H2.71162H2.71356H2.7155H2.71743H2.71937H2.72131H2.72324H2.72518H2.72711H2.72905H2.73098H2.73292H2.73486H2.73679H2.73873H2.74066H2.7426H2.74453H2.74647H2.7484H2.75034H2.75227H2.75421H2.75614H2.75808H2.76001H2.76195H2.76388H2.76582H2.76775H2.76969H2.77162H2.77355H2.77549H2.77742H2.77936H2.78129H2.78323H2.78516H2.78709H2.78903H2.79096H2.7929H2.79483H2.79676H2.7987H2.80063H2.80256H2.8045H2.80643H2.80836H2.8103H2.81223H2.81416H2.8161H2.81803H2.81996H2.8219H2.82383H2.82576H2.8277H2.82963H2.83156H2.8335H2.83543H2.83736H2.83929H2.84123H2.84316H2.84509H2.84702H2.84896H2.85089H2.85282H2.85475H2.85669H2.85862H2.86055H2.86248H2.86442H2.86635H2.86828H2.87021H2.87215H2.87408H2.87601H2.87794H2.87987H2.88181H2.88374H2.88567H2.8876H2.88953H2.89147H2.8934H2.89533H2.89726H2.89919H2.90112H2.90306H2.90499H2.90692H2.90885H2.91078H2.91271H2.91465H2.91658H2.91851H2.92044H2.92237H2.9243H2.92624H2.92817H2.9301H2.93203H2.93396H2.93589H2.93782H2.93975H2.94169H2.94362H2.94555H2.94748H2.94941H2.95134H2.95327H2.9552H2.95714H2.95907H2.961H2.96293H2.96486H2.96679H2.96872H2.97065H2.97259H2.97452H2.97645H2.97838H2.98031H2.98224H2.98417H2.9861H2.98803H2.98996H2.9919H2.99383H2.99576H2.99769H2.99962H3.00155H3.00348H3.00541H3.00734H3.00928H3.00937C5.07308 12.4836 7.10596 12.9788 8.93217 13.9276ZM17.9894 12.5243H18.1394V12.3743V2.47248V2.33077L17.9979 2.32272C17.6611 2.30355 17.3234 2.30347 16.9865 2.32247C14.8284 2.32096 12.7174 2.94675 10.9167 4.12209L10.8487 4.16648V4.2477V13.8339V14.0809L11.0678 13.967C12.894 13.0183 14.9269 12.523 16.9906 12.5243H16.9907H16.9927H16.9946H16.9965H16.9984H17.0004H17.0023H17.0042H17.0062H17.0081H17.01H17.012H17.0139H17.0158H17.0178H17.0197H17.0216H17.0236H17.0255H17.0274H17.0293H17.0313H17.0332H17.0351H17.0371H17.039H17.0409H17.0429H17.0448H17.0467H17.0487H17.0506H17.0525H17.0544H17.0564H17.0583H17.0602H17.0622H17.0641H17.066H17.068H17.0699H17.0718H17.0738H17.0757H17.0776H17.0796H17.0815H17.0834H17.0854H17.0873H17.0892H17.0911H17.0931H17.095H17.0969H17.0989H17.1008H17.1027H17.1047H17.1066H17.1085H17.1105H17.1124H17.1143H17.1163H17.1182H17.1201H17.1221H17.124H17.1259H17.1279H17.1298H17.1317H17.1336H17.1356H17.1375H17.1394H17.1414H17.1433H17.1452H17.1472H17.1491H17.151H17.153H17.1549H17.1568H17.1588H17.1607H17.1626H17.1646H17.1665H17.1684H17.1704H17.1723H17.1742H17.1762H17.1781H17.18H17.182H17.1839H17.1858H17.1878H17.1897H17.1916H17.1936H17.1955H17.1974H17.1994H17.2013H17.2032H17.2052H17.2071H17.209H17.211H17.2129H17.2148H17.2168H17.2187H17.2206H17.2226H17.2245H17.2264H17.2284H17.2303H17.2322H17.2342H17.2361H17.2381H17.24H17.2419H17.2439H17.2458H17.2477H17.2497H17.2516H17.2535H17.2555H17.2574H17.2593H17.2613H17.2632H17.2651H17.2671H17.269H17.271H17.2729H17.2748H17.2768H17.2787H17.2806H17.2826H17.2845H17.2864H17.2884H17.2903H17.2922H17.2942H17.2961H17.2981H17.3H17.3019H17.3039H17.3058H17.3077H17.3097H17.3116H17.3136H17.3155H17.3174H17.3194H17.3213H17.3232H17.3252H17.3271H17.3291H17.331H17.3329H17.3349H17.3368H17.3387H17.3407H17.3426H17.3446H17.3465H17.3484H17.3504H17.3523H17.3543H17.3562H17.3581H17.3601H17.362H17.3639H17.3659H17.3678H17.3698H17.3717H17.3736H17.3756H17.3775H17.3795H17.3814H17.3833H17.3853H17.3872H17.3892H17.3911H17.393H17.395H17.3969H17.3989H17.4008H17.4028H17.4047H17.4066H17.4086H17.4105H17.4125H17.4144H17.4163H17.4183H17.4202H17.4222H17.4241H17.4261H17.428H17.4299H17.4319H17.4338H17.4358H17.4377H17.4397H17.4416H17.4435H17.4455H17.4474H17.4494H17.4513H17.4533H17.4552H17.4571H17.4591H17.461H17.463H17.4649H17.4669H17.4688H17.4708H17.4727H17.4746H17.4766H17.4785H17.4805H17.4824H17.4844H17.4863H17.4883H17.4902H17.4922H17.4941H17.496H17.498H17.4999H17.5019H17.5038H17.5058H17.5077H17.5097H17.5116H17.5136H17.5155H17.5175H17.5194H17.5214H17.5233H17.5253H17.5272H17.5291H17.5311H17.533H17.535H17.5369H17.5389H17.5408H17.5428H17.5447H17.5467H17.5486H17.5506H17.5525H17.5545H17.5564H17.5584H17.5603H17.5623H17.5642H17.5662H17.5681H17.5701H17.572H17.574H17.5759H17.5779H17.5798H17.5818H17.5838H17.5857H17.5877H17.5896H17.5916H17.5935H17.5955H17.5974H17.5994H17.6013H17.6033H17.6052H17.6072H17.6091H17.6111H17.613H17.615H17.617H17.6189H17.6209H17.6228H17.6248H17.6267H17.6287H17.6306H17.6326H17.6345H17.6365H17.6385H17.6404H17.6424H17.6443H17.6463H17.6482H17.6502H17.6522H17.6541H17.6561H17.658H17.66H17.6619H17.6639H17.6659H17.6678H17.6698H17.6717H17.6737H17.6757H17.6776H17.6796H17.6815H17.6835H17.6854H17.6874H17.6894H17.6913H17.6933H17.6952H17.6972H17.6992H17.7011H17.7031H17.7051H17.707H17.709H17.7109H17.7129H17.7149H17.7168H17.7188H17.7207H17.7227H17.7247H17.7266H17.7286H17.7306H17.7325H17.7345H17.7365H17.7384H17.7404H17.7423H17.7443H17.7463H17.7482H17.7502H17.7522H17.7541H17.7561H17.7581H17.76H17.762H17.764H17.7659H17.7679H17.7699H17.7718H17.7738H17.7758H17.7777H17.7797H17.7817H17.7836H17.7856H17.7876H17.7895H17.7915H17.7935H17.7955H17.7974H17.7994H17.8014H17.8033H17.8053H17.8073H17.8092H17.8112H17.8132H17.8152H17.8171H17.8191H17.8211H17.823H17.825H17.827H17.829H17.8309H17.8329H17.8349H17.8368H17.8388H17.8408H17.8428H17.8447H17.8467H17.8487H17.8507H17.8526H17.8546H17.8566H17.8586H17.8605H17.8625H17.8645H17.8665H17.8684H17.8704H17.8724H17.8744H17.8764H17.8783H17.8803H17.8823H17.8843H17.8862H17.8882H17.8902H17.8922H17.8942H17.8961H17.8981H17.9001H17.9021H17.9041H17.906H17.908H17.91H17.912H17.914H17.9159H17.9179H17.9199H17.9219H17.9239H17.9258H17.9278H17.9298H17.9318H17.9338H17.9358H17.9377H17.9397H17.9417H17.9437H17.9457H17.9477H17.9497H17.9516H17.9536H17.9556H17.9576H17.9596H17.9616H17.9636H17.9655H17.9675H17.9695H17.9715H17.9735H17.9755H17.9775H17.9795H17.9814H17.9834H17.9854H17.9874H17.9894ZM17.8394 12.3743H16.9907L17.9894 2.47248V12.2243V12.3743H17.8394Z" fill="#7B8BB2" stroke="white" stroke-width="0.3"/>
<path d="M19.1325 16.6285L19.1325 16.6285L19.1344 16.6288C19.2449 16.6463 19.3509 16.6854 19.4462 16.7438C19.5414 16.8023 19.6242 16.879 19.6896 16.9694C19.755 17.0598 19.8019 17.1622 19.8275 17.2707C19.8529 17.3785 19.8568 17.4901 19.8391 17.5994C19.7956 17.8181 19.6672 18.0109 19.4817 18.1358C19.2956 18.2612 19.0672 18.3079 18.8465 18.2656L18.8438 18.2651C17.393 18.0146 15.9066 18.0562 14.4722 18.3874C13.038 18.7185 11.6846 19.3326 10.4919 20.1934C10.3483 20.2952 10.1763 20.35 10 20.35C9.82364 20.35 9.65171 20.2952 9.50806 20.1934C8.31535 19.3326 6.96203 18.7185 5.52779 18.3874C4.09335 18.0562 2.60697 18.0146 1.15618 18.2651L1.15617 18.2651L1.15348 18.2656C0.932827 18.3079 0.704402 18.2612 0.518268 18.1358C0.332778 18.0109 0.204401 17.8181 0.160884 17.5994C0.143159 17.4901 0.147113 17.3785 0.172531 17.2707C0.198122 17.1622 0.244972 17.0598 0.310403 16.9694C0.375836 16.879 0.458564 16.8023 0.553844 16.7438C0.649126 16.6854 0.755075 16.6463 0.8656 16.6288L0.865602 16.6288L0.867547 16.6285C1.57513 16.5069 2.29164 16.4443 3.00965 16.4414C5.45923 16.4394 7.85768 17.14 9.91913 18.4596L10 18.5113L10.0809 18.4596C12.1423 17.14 14.5408 16.4394 16.9904 16.4414C17.7084 16.4443 18.4249 16.5069 19.1325 16.6285Z" fill="#D7DDEC" stroke="#D7DDEC" stroke-width="0.3"/>
</svg>
