<svg width="20" height="21" viewBox="0 0 20 21" fill="none" xmlns="http://www.w3.org/2000/svg">
<path d="M4.34574 19.7025C2.34848 19.5293 0.78125 17.8535 0.78125 15.8113V9.23818C0.78125 8.01978 1.34977 6.87115 2.31855 6.13225L7.63105 2.08033C9.03012 1.01326 10.9699 1.01326 12.3689 2.08033L12.7283 2.35443C11.7689 2.25975 10.7819 2.51943 9.97484 3.13502L3.65672 7.95393C3.32164 8.20947 3.125 8.60678 3.125 9.02818V16.866C3.125 17.9831 3.59402 18.9905 4.34574 19.7025Z" fill="#CEE1F2"/>
<path d="M15.3125 20.4989H4.6875C2.10281 20.4989 0 18.3961 0 15.8114V9.23835C0 7.78557 0.689649 6.39225 1.84477 5.5112L7.15727 1.45928C8.83105 0.182681 11.1689 0.182681 12.8427 1.45928L18.1552 5.5112C19.3104 6.39221 20 7.78553 20 9.23835V15.8114C20 18.3961 17.8972 20.4989 15.3125 20.4989ZM10 2.06334C9.33129 2.06334 8.66285 2.27608 8.10484 2.70163L2.79234 6.75354C2.02227 7.34092 1.5625 8.26979 1.5625 9.23835V15.8114C1.5625 17.5346 2.96438 18.9364 4.6875 18.9364H15.3125C17.0356 18.9364 18.4375 17.5346 18.4375 15.8114V9.23835C18.4375 8.26983 17.9777 7.34092 17.2077 6.75358L11.8952 2.70166C11.3373 2.2762 10.6686 2.06334 10 2.06334Z" fill="#376AED"/>
<path d="M12.8125 16.0845H7.22656C5.93422 16.0845 4.88281 15.0331 4.88281 13.7407V10.811C4.88281 9.51869 5.93422 8.46729 7.22656 8.46729H8.31441C8.97988 8.46729 9.58648 8.72951 10.0361 9.15611C10.4843 8.7294 11.09 8.46729 11.7557 8.46729H12.8125C14.1048 8.46729 15.1562 9.51869 15.1562 10.811V13.7407C15.1562 15.0331 14.1048 16.0845 12.8125 16.0845ZM7.22656 10.0298C6.79578 10.0298 6.44531 10.3803 6.44531 10.811V13.7407C6.44531 14.1715 6.79578 14.522 7.22656 14.522H12.8125C13.2433 14.522 13.5938 14.1715 13.5938 13.7407V10.811C13.5938 10.3803 13.2433 10.0298 12.8125 10.0298H11.7557C11.2402 10.0298 10.8207 10.4508 10.8203 10.9684V10.9704V12.4126C10.8203 12.8441 10.4705 13.1939 10.0391 13.1939C9.60758 13.1939 9.25781 12.8441 9.25781 12.4126V10.9713C9.25496 10.4521 8.83199 10.0298 8.31441 10.0298H7.22656Z" fill="#4DC4E7"/>
</svg>
