<svg width="15" height="15" viewBox="0 0 15 15" fill="none" xmlns="http://www.w3.org/2000/svg">
<path d="M12 5.50002H9V3.00002C9.05038 2.51998 8.908 2.03959 8.6042 1.66452C8.30039 1.28945 7.86004 1.05043 7.38 1.00002C7.25378 0.985019 7.12622 0.985019 7 1.00002H6.215C6.04787 1.0046 5.88698 1.06453 5.75758 1.1704C5.62818 1.27627 5.53758 1.4221 5.5 1.58502V1.64502L5 4.81502L3.23 7.50002H0V14.5H9.5C13.22 14.5 14 12.325 14 10.5V7.50002C14.0504 7.01998 13.908 6.53959 13.6042 6.16452C13.3004 5.78945 12.86 5.55043 12.38 5.50002C12.2538 5.48502 12.1262 5.48502 12 5.50002ZM3 13.5H1V8.50002H3V13.5ZM13 10.5C13 12.545 11.89 13.5 9.5 13.5H4V8.15002L6 5.18502L6.365 2.50002L6.435 2.00002H7C7.72 2.00002 8 2.28002 8 3.00002V6.50002H12C12.72 6.50002 13 6.78002 13 7.50002V10.5Z" fill="#2D4379"/>
</svg>
