<svg width="16" height="16" viewBox="0 0 16 16" fill="none" xmlns="http://www.w3.org/2000/svg">
<path d="M10.7516 6.04435C11.1597 4.96632 11.3665 4.02201 11.3665 3.20839C11.3665 1.39683 10.5333 0 9.14834 0C8.39684 0 8.16438 0.380746 7.87337 1.31977C7.88934 1.27067 7.72874 1.79873 7.68261 1.93999C7.593 2.2112 7.43684 2.67278 7.21503 3.32322C7.209 3.3406 7.20004 3.35715 7.18841 3.37233L4.64557 6.76127C4.04372 7.56265 3.15587 8.17854 2.11248 8.51845L0.997213 8.88257C0.656327 8.99377 0.372354 9.20368 0.195168 9.47543C0.017983 9.74718 -0.0410841 10.0634 0.0283411 10.3685L0.636991 13.0421C0.709602 13.361 0.887999 13.6554 1.15106 13.8907C1.41413 14.1259 1.75085 14.292 2.12135 14.3694L9.44113 15.8969C10.5201 16.122 11.6598 15.9752 12.6123 15.4886C13.5649 15.0019 14.2532 14.2147 14.5277 13.2982L15.9242 8.63479C16.0162 8.32803 16.0246 8.00743 15.9487 7.69749C15.8729 7.38755 15.7149 7.09646 15.4868 6.84646C15.2587 6.59646 14.9664 6.39415 14.6325 6.25501C14.2985 6.11586 13.9315 6.04355 13.5597 6.0436H10.7516V6.04435Z" fill="#376AED"/>
</svg>
