<svg width="20" height="21" viewBox="0 0 20 21" fill="none" xmlns="http://www.w3.org/2000/svg">
<path d="M5.23438 5.5H2.89062C1.72566 5.5 0.78125 4.55559 0.78125 3.39062C0.78125 2.22563 1.72566 1.28125 2.89062 1.28125H5.23438C4.06941 1.28125 3.125 2.22563 3.125 3.39062C3.125 4.55559 4.06941 5.5 5.23438 5.5ZM3.125 10.5C3.125 9.335 4.06941 8.39062 5.23438 8.39062H2.89062C1.72566 8.39062 0.78125 9.335 0.78125 10.5C0.78125 11.665 1.72566 12.6094 2.89062 12.6094H5.23438C4.06941 12.6094 3.125 11.665 3.125 10.5ZM3.125 17.6094C3.125 16.4444 4.06941 15.5 5.23438 15.5H2.89062C1.72566 15.5 0.78125 16.4444 0.78125 17.6094C0.78125 18.7743 1.72566 19.7188 2.89062 19.7188H5.23438C4.06941 19.7188 3.125 18.7743 3.125 17.6094Z" fill="#D7DDEC"/>
<path d="M6.14785 6.28127H2.89062C1.29672 6.28127 0 4.98455 0 3.39064C0 1.79674 1.29672 0.500017 2.89062 0.500017H6.17188C6.60336 0.500017 6.95312 0.849782 6.95312 1.28127C6.95312 1.71275 6.60336 2.06252 6.17188 2.06252H2.89062C2.15828 2.06252 1.5625 2.6583 1.5625 3.39064C1.5625 4.12299 2.15828 4.71877 2.89062 4.71877H6.14785C6.57934 4.71877 6.9291 5.06853 6.9291 5.50002C6.9291 5.9315 6.57934 6.28127 6.14785 6.28127ZM20 3.39064C20 1.79674 18.7033 0.500017 17.1094 0.500017L5.83333 0.5C5.40185 0.5 6.95312 0.849782 6.95312 1.28127C6.95312 1.71275 5.65576 2.06252 6.08724 2.06252H17.1094C17.8417 2.06252 18.4375 2.6583 18.4375 3.39064C18.4375 4.12299 17.8417 4.71877 17.1094 4.71877H6.25C5.81852 4.71877 6.9291 5.06853 6.9291 5.50002C6.9291 5.9315 5.81852 6.28127 6.25 6.28127H17.1094C18.7033 6.28127 20 4.98455 20 3.39064ZM13.6328 12.6094C13.6328 12.1779 13.283 11.8281 12.8516 11.8281H2.89062C2.15828 11.8281 1.5625 11.2324 1.5625 10.5C1.5625 9.76767 2.15828 9.17189 2.89062 9.17189H12.8516C13.283 9.17189 13.6328 8.82213 13.6328 8.39064C13.6328 7.95916 13.283 7.60939 12.8516 7.60939H2.89062C1.29672 7.60939 0 8.90611 0 10.5C0 12.0939 1.29672 13.3906 2.89062 13.3906H12.8516C13.283 13.3906 13.6328 13.0409 13.6328 12.6094ZM19.9609 17.6094C19.9609 16.0155 18.6642 14.7188 17.0703 14.7188H7.08333C6.65185 14.7188 5.83333 15.0685 5.83333 15.5C5.83333 15.9315 7.48518 16.2813 7.91667 16.2813H17.0703C17.8027 16.2813 18.3984 16.877 18.3984 17.6094C18.3984 18.3417 17.8027 18.9375 17.0703 18.9375H7.08333C6.65185 18.9375 7.5 19.2873 7.5 19.7188C7.5 20.1502 7.06852 20.5 7.5 20.5H17.0703C18.6642 20.5 19.9609 19.2033 19.9609 17.6094ZM8.86719 19.7188C8.86719 19.2873 8.51742 18.9375 8.08594 18.9375H2.89062C2.15828 18.9375 1.5625 18.3417 1.5625 17.6094C1.5625 16.877 2.15828 16.2813 2.89062 16.2813H8.08594C8.51742 16.2813 8.86719 15.9315 8.86719 15.5C8.86719 15.0685 8.51742 14.7188 8.08594 14.7188H2.89062C1.29672 14.7188 0 16.0155 0 17.6094C0 19.2033 1.29672 20.5 2.89062 20.5H8.08594C8.51742 20.5 8.86719 20.1502 8.86719 19.7188Z" fill="#7B8BB2"/>
<path d="M17.0703 13.3906H15.9766C15.5451 13.3906 15.1953 13.0409 15.1953 12.6094C15.1953 12.1779 15.5451 11.8281 15.9766 11.8281H17.0703C17.8027 11.8281 18.3984 11.2323 18.3984 10.5C18.3984 9.76766 17.8027 9.17188 17.0703 9.17188H15.9766C15.5451 9.17188 15.1953 8.82211 15.1953 8.39062C15.1953 7.95914 15.5451 7.60938 15.9766 7.60938H17.0703C18.6642 7.60938 19.9609 8.90609 19.9609 10.5C19.9609 12.0939 18.6642 13.3906 17.0703 13.3906Z" fill="#D7DDEC"/>
</svg>
