<svg width="20" height="21" viewBox="0 0 20 21" fill="none" xmlns="http://www.w3.org/2000/svg">
<path d="M3.16847 8.73583C3.16847 5.00326 5.91364 1.91137 9.49663 1.36604C9.12725 1.3098 8.74893 1.28064 8.36381 1.28064C4.24324 1.28064 0.902832 4.61847 0.902832 8.73587C0.902832 12.8533 4.24324 16.1911 8.36381 16.1911C8.74893 16.1911 9.12725 16.1619 9.49663 16.1057C5.91368 15.5603 3.16847 12.4684 3.16847 8.73583Z" fill="#D7DDEC"/>
<path d="M8.24223 16.9718C3.69744 16.9718 0 13.2772 0 8.73588C0 4.19459 3.69744 0.5 8.24223 0.5C12.787 0.5 16.4845 4.19459 16.4845 8.73588C16.4845 13.2772 12.787 16.9718 8.24223 16.9718ZM8.24223 2.0613C4.55901 2.0613 1.56251 5.0555 1.56251 8.73588C1.56251 12.4163 4.55901 15.4105 8.24223 15.4105C11.9255 15.4105 14.922 12.4163 14.922 8.73588C14.922 5.0555 11.9255 2.0613 8.24223 2.0613Z" fill="#7B8BB2"/>
<path d="M19.219 20.5002C19.0191 20.5002 18.8191 20.424 18.6666 20.2716L15.1705 16.7781C14.8654 16.4733 14.8654 15.9789 15.1705 15.6741C15.4756 15.3692 15.9703 15.3692 16.2753 15.6741L19.7715 19.1675C20.0765 19.4724 20.0765 19.9667 19.7715 20.2716C19.6189 20.4239 19.419 20.5002 19.219 20.5002Z" fill="#D7DDEC"/>
</svg>
