<svg width="18" height="18" viewBox="0 0 18 18" fill="none" xmlns="http://www.w3.org/2000/svg">
<path d="M17.7825 0.217449C17.6813 0.116704 17.5534 0.046952 17.4139 0.0163941C17.2744 -0.0141638 17.1291 -0.00425713 16.995 0.0449493L0.495001 6.04495C0.352702 6.09892 0.230191 6.19491 0.143739 6.32016C0.0572872 6.44542 0.0109863 6.59401 0.0109863 6.7462C0.0109863 6.89839 0.0572872 7.04698 0.143739 7.17223C0.230191 7.29749 0.352702 7.39347 0.495001 7.44745L7.695 10.3274L10.575 17.5274C10.6291 17.6635 10.7219 17.7807 10.8418 17.8647C10.9618 17.9487 11.1036 17.9957 11.25 17.9999C11.4016 17.9968 11.5486 17.9479 11.6718 17.8595C11.795 17.7711 11.8885 17.6475 11.94 17.5049L17.94 1.00495C17.9911 0.872257 18.0034 0.727772 17.9755 0.588342C17.9477 0.448912 17.8807 0.320282 17.7825 0.217449ZM11.25 15.1499L9.1575 9.89995L12.75 6.30745L11.6925 5.24995L8.07 8.87245L2.85 6.74995L15.9975 2.00245L11.25 15.1499Z" fill="#376AED"/>
</svg>
